<svg width="449" height="537" viewBox="0 0 449 537" fill="none" xmlns="http://www.w3.org/2000/svg">
<path d="M83.1792 473.847C80.0019 481.637 76.71 488.872 70.3391 494.25C69.0252 495.359 68.3157 497.269 67.5332 498.909C62.511 509.429 57.5815 519.995 52.5318 530.502C51.5445 532.557 51.0037 534.923 49.1201 536.457C47.1477 536.181 46.9584 534.458 46.3474 533.191C42.37 524.94 38.3758 516.695 34.5384 508.379C31.2625 501.279 27.9923 494.341 22.2584 488.635C17.6904 484.088 15.6308 477.924 15.2167 471.399C14.9011 466.426 12.6513 462.143 10.5989 457.771C7.22679 450.587 3.89719 443.384 0 435.007C7.31621 435.007 13.5602 434.76 19.7734 435.092C24.0674 435.321 26.3715 433.836 28.0955 429.826C48.0893 383.324 68.2502 336.894 88.353 290.439C115.837 226.927 143.064 163.302 171.063 100.018C175.032 91.047 175.373 84.3026 171.858 75.0071C158.054 38.5058 185.713 -0.0164977 224.757 5.30056e-06C256.38 0.0133713 281.487 24.6652 281.666 56.1652C281.722 65.952 279.371 75.3323 274.468 83.8882C272.952 86.5346 273.094 88.4293 274.634 91.1331C280.993 102.293 285.36 114.399 290.472 126.145C310.337 171.793 330.012 217.523 349.784 263.212C373.432 317.86 397.208 372.454 420.623 427.202C423.172 433.162 426.143 435.856 432.705 435.128C437.935 434.548 443.28 435.011 448.279 435.011C449.643 437.356 448.363 438.742 447.7 440.17C445.386 445.155 442.871 450.049 440.642 455.071C437.971 461.09 434.853 466.776 434.428 473.807C434.037 480.278 430.708 486.251 425.806 490.861C422.82 493.669 420.747 496.953 419.04 500.621C413.981 511.493 408.803 522.308 403.653 533.138C403.097 534.307 402.813 535.688 401.457 536.419C399.272 535.865 399.086 533.771 398.348 532.252C394.489 524.314 390.764 516.31 386.978 508.337C383.706 501.447 380.577 494.673 374.954 489.009C368.64 482.651 366.719 473.506 363.2 465.455C346.859 428.075 330.749 390.594 314.541 353.155C313.691 351.191 312.706 349.286 311.698 347.174C307.603 348.078 304.65 350.622 301.381 352.442C276.914 366.067 250.804 373.846 222.713 373.444C194.62 373.042 168.765 364.368 144.646 350.24C138.686 346.749 138.192 346.789 135.328 353.395C120.091 388.531 104.916 423.694 89.715 458.846C87.6003 463.736 85.4599 468.615 83.1792 473.847ZM234.97 169.356C231.687 162.4 229.52 154.897 225.206 148.154C222.631 150.413 221.998 153.077 220.962 155.468C204.07 194.423 187.228 233.398 170.355 272.361C165.735 283.03 165.645 283.115 175.69 289.401C188.801 297.605 202.675 303.779 218.371 305.073C241.372 306.969 261.047 298.497 279.552 285.978C282.951 283.679 283.614 281.617 281.933 277.769C266.274 241.91 250.806 205.968 234.97 169.356Z" fill="#92ABC4"/>
</svg>
