<svg width="368" height="362" viewBox="0 0 368 362" fill="none" xmlns="http://www.w3.org/2000/svg">
<path d="M12.6707 266.751V94.5432C38.2054 107.086 63.0801 119.305 87.9547 131.523C88.1467 131.142 88.3387 130.761 88.5307 130.379C65.3014 116.511 42.0707 102.645 18.3667 88.4939C66.4067 60.5379 113.639 33.0526 160.869 5.56728C163.637 4.03928 165.836 2.71126 169.425 0.000591216C165.228 1.51259 162.581 2.67796 159.605 4.24062C109.203 29.2353 58.8347 54.3033 8.3494 79.1286C2.53873 81.9859 0.00806397 85.2593 0.040064 92.1606C0.316064 152.353 0.19873 212.547 6.30602e-05 272.742C-0.0132703 276.647 2.0894 277.447 4.7694 278.698C62.9694 305.866 121.161 333.053 179.287 360.382C182.912 362.086 185.885 361.994 189.316 360.335C202.073 354.167 214.859 348.054 227.7 342.062C272.839 321.001 318.011 300.007 363.148 278.941C364.755 278.191 367.411 278.018 366.476 274.995C362.471 271.929 359.471 270.095 354.425 266.919C337.976 258.953 321.528 250.985 305.08 243.017C298.471 240.095 292.488 236.869 285.403 234.607C291.46 237.914 297.519 241.221 303.576 244.527C318.213 252.669 332.852 260.81 348.503 269.514C331.409 277.527 315.623 284.958 299.809 292.334C262.457 309.755 225.087 327.137 187.749 344.59C185.632 345.579 183.961 345.99 181.581 344.871C152.909 331.405 124.155 318.114 95.4374 304.743C70.3441 293.058 45.2721 281.329 19.3881 269.243C33.7294 261.102 47.6494 253.926 61.2481 246.206C68.0267 242.317 74.9427 238.625 81.3587 234.054" fill="white"/>
<path d="M169.071 180.65C166.665 180.65 165.265 180.912 164.019 180.586C162.345 180.149 158.912 182.373 159.432 178.264C159.795 175.404 159.764 171.685 164.515 172.097C166.497 172.268 168.511 172.017 170.505 172.1C174.593 172.27 178.216 173.064 179.521 166.921C180.495 162.34 186.897 162.332 188.175 167.052C189.837 173.196 193.829 171.8 197.716 171.994C202.089 172.214 207.272 170.609 208.051 177.77C208.335 180.38 207.769 180.88 205.496 180.778C203.059 180.669 200.603 180.87 198.175 180.678C193.983 180.348 190.944 180.776 188.719 185.509C186.116 191.045 181.609 191.293 179.491 186.306C177.017 180.481 173.144 179.842 169.071 180.65Z" fill="white"/>
<path d="M273.78 175.094C272.488 178.319 270.161 178.867 267.697 179.342C262.956 180.255 258.024 180.224 253.537 182.462C251.951 183.254 249.881 183.375 248.552 181.926C246.499 179.688 244.773 180.547 242.825 181.927C240.641 183.475 237.251 184.059 236.212 182.094C234.447 178.755 232.191 174.568 233.532 170.942C234.568 168.142 238.949 168.742 241.265 169.967C244.224 171.532 246.335 171.868 248.733 169.46C249.131 169.062 250.043 168.847 250.601 168.991C258.311 170.972 265.999 173.031 273.78 175.094Z" fill="white"/>
<path d="M133.277 173.591C132.31 183.623 131.886 183.912 122.885 180.868C122.304 180.671 121.452 180.288 121.106 180.531C113.185 186.136 106.18 177.946 98.5157 179.007C96.7824 179.246 93.8357 178.139 93.8117 176.124C93.7811 173.391 96.9011 173.776 98.8597 173.2C104.038 171.679 110.106 173.595 114.536 169.15C114.68 169.004 115.017 168.843 115.133 168.911C120.184 171.88 125.478 170.024 130.718 169.866C132.837 169.802 134.716 170.904 133.277 173.591Z" fill="white"/>
<path d="M203.779 94.907C209.525 96.275 211.643 101.124 213.038 105.818C220.443 130.739 227.386 155.783 233.667 181.027C239.429 204.178 246.017 227.142 252.987 249.959C256.049 259.986 255.579 270.147 256.678 280.244C257.481 287.624 257.787 295.06 257.027 302.915C250.941 290.074 243.362 277.711 239.049 264.298C226.642 225.715 213.005 187.555 200.403 149.046C195.537 134.172 191.043 119.175 186.455 104.211C186.35 103.87 187.149 103.252 187.526 102.763C190.186 100.722 193.518 99.9057 196.238 97.9724C198.651 96.7057 200.955 95.1604 203.779 94.907Z" fill="white"/>
<path d="M179.496 103.227C178.136 113.585 175.117 123.565 171.833 133.394C159.497 170.325 146.077 206.911 134.591 244.099C128.6 263.497 120.161 281.622 111.845 299.924C111.241 301.255 111.032 302.955 108.668 303.882C109.347 298.353 110.649 293.186 110.497 288.062C109.723 262.074 118.02 237.886 124.713 213.359C134.257 178.386 143.76 143.401 153.195 108.398C154.379 104.005 156.548 100.283 159.171 96.6458C160.465 94.8485 161.747 94.4578 163.64 95.0018C164.644 94.5258 165.436 95.0005 166.211 95.5645C169.848 99.4859 175.537 99.8579 179.496 103.227Z" fill="white"/>
<path d="M201.112 82.3635C198.18 88.3915 193.503 92.2915 186.235 91.6622C183.482 91.4235 180.638 92.3582 177.97 91.0329C163.151 84.5129 160.056 69.0675 171.439 58.4342C183.622 51.6076 193.638 53.4156 200.678 63.8782C204.712 69.8755 204.076 76.2702 201.112 82.3635ZM198.079 47.1702C194.898 45.2235 194.086 43.4262 194.274 39.9555C194.623 33.5462 194.476 27.1022 194.318 20.6782C194.14 13.4969 190.054 9.75155 182.936 9.93289C176.876 10.0876 173.14 14.1049 173.075 20.6729C173.014 26.8795 172.772 33.1022 173.147 39.2862C173.391 43.2876 172.21 45.3956 168.634 47.5636C150.936 58.2902 148.752 80.5062 163.639 95.0009C164.06 95.2662 164.482 95.5302 164.903 95.7942C169.27 99.2249 173.883 102.048 179.738 101.801C182.346 101.817 184.952 101.834 187.56 101.85C191.118 102.198 193.906 99.9675 197.074 99.0062C199.227 97.5075 202.618 98.0289 203.779 94.9062C218.731 79.3529 216.366 58.3675 198.079 47.1702Z" fill="white"/>
<path d="M366.476 274.995C362.459 272.303 358.443 269.611 354.426 266.92C356.042 265.235 355.388 263.131 355.388 261.199C355.41 208.3 355.402 155.402 355.378 102.502C355.374 93.9191 355.348 93.9565 347.908 97.6511C324.72 109.166 301.516 120.648 277.679 131.01C301.476 116.942 325.274 102.872 349.783 88.3818C298.96 59.1125 248.955 30.3151 198.948 1.51648C207.875 3.21648 215.327 7.9738 223.166 11.8631C268.9 34.5591 314.56 57.4045 360.358 79.9711C365.427 82.4698 367.01 85.3111 366.954 91.0618C366.699 117.483 367.327 143.911 367.266 170.336C367.186 205.223 366.756 240.108 366.476 274.995Z" fill="white"/>
<path d="M178.325 91.0138C191.794 91.8551 199.173 87.7591 201.873 77.7458C203.609 71.3058 202.55 65.4844 197.529 60.6804C191.682 55.0871 184.805 53.9938 177.224 55.8818C175.336 56.3524 173.489 56.9924 171.622 57.5551C172.205 55.2431 175.646 55.1778 175.66 52.4191C175.205 50.8804 176.182 50.6178 177.365 50.3711C191.352 47.4551 200.021 53.3564 205.472 63.8978C210.86 74.3204 206.377 85.8884 195.605 93.1311C194.708 93.7364 193.597 94.1084 193.089 95.1978C189.444 96.4551 189.328 96.4738 188.858 93.4711C188.553 91.5071 187.276 92.6324 186.497 92.5778C183.701 92.3831 180.692 93.4484 178.325 91.0138Z" fill="white"/>
<path d="M140.912 177.658C141.209 178.56 140.89 179.759 142.14 180.203C140.06 185.724 139.776 191.868 135.761 198.174C136.701 190.224 138.494 183.867 140.912 177.658Z" fill="white"/>
<path d="M140.912 177.658C147.142 155.397 153.374 133.135 159.605 110.874C160.48 111.113 161.353 111.351 162.228 111.589C156.749 134.783 148.902 157.35 142.14 180.203C139.83 180.271 140.185 179.054 140.912 177.658Z" fill="white"/>
<path d="M205.88 111.084C215.237 134.638 221.216 159.103 227.245 183.554C218.412 159.878 211.505 135.638 205.88 111.084Z" fill="white"/>
<path d="M193.089 95.1973C194.533 90.9706 199.008 89.6373 201.511 86.2439C207.548 78.0573 207.979 68.6893 201.827 60.5213C195.005 51.4653 185.187 48.4253 175.659 52.4186C163.581 56.5199 160.705 66.2573 160.672 78.7426C155.943 63.1786 165.636 52.3213 175.787 49.5839C190.013 45.7479 203.353 52.3493 207.608 65.1053C211.745 77.5093 205.591 90.2639 193.089 95.1973Z" fill="white"/>
<path d="M187.56 101.851C190.592 100.436 193.617 99.0002 197.073 99.0069C194.372 101.48 191.38 103.216 187.527 102.763C187.432 102.455 187.444 102.151 187.56 101.851Z" fill="white"/>
<path d="M164.903 95.7946C169.849 97.7959 174.793 99.7986 179.738 101.8C179.658 102.276 179.577 102.752 179.495 103.227C173.726 102.527 168.385 100.985 164.903 95.7946Z" fill="white"/>
</svg>
