<svg width="794" height="1123" viewBox="0 0 794 1123" fill="none" xmlns="http://www.w3.org/2000/svg">
<path d="M227.867 487.657V315.449C253.401 327.991 278.276 340.21 303.151 352.429C303.343 352.047 303.535 351.666 303.727 351.285C280.497 337.417 257.267 323.55 233.563 309.399C281.603 281.443 328.835 253.958 376.065 226.473C378.833 224.945 381.032 223.617 384.621 220.906C380.424 222.418 377.777 223.583 374.801 225.146C324.399 250.141 274.031 275.209 223.545 300.034C217.735 302.891 215.204 306.165 215.236 313.066C215.512 373.258 215.395 433.453 215.196 493.647C215.183 497.553 217.285 498.353 219.965 499.603C278.165 526.771 336.357 553.958 394.483 581.287C398.108 582.991 401.081 582.899 404.512 581.241C417.269 575.073 430.055 568.959 442.896 562.967C488.035 541.906 533.207 520.913 578.344 499.846C579.951 499.097 582.607 498.923 581.672 495.901C577.667 492.834 574.667 491.001 569.621 487.825C553.172 479.858 536.724 471.89 520.276 463.922C513.667 461.001 507.684 457.774 500.599 455.513C506.656 458.819 512.715 462.126 518.772 465.433C533.409 473.574 548.048 481.715 563.699 490.419C546.605 498.433 530.819 505.863 515.005 513.239C477.653 530.661 440.283 548.042 402.945 565.495C400.828 566.485 399.157 566.895 396.777 565.777C368.105 552.31 339.351 539.019 310.633 525.649C285.54 513.963 260.468 502.234 234.584 490.149C248.925 482.007 262.845 474.831 276.444 467.111C283.223 463.222 290.139 459.53 296.555 454.959" fill="#212936"/>
<path d="M384.267 401.555C381.861 401.555 380.461 401.817 379.215 401.491C377.541 401.054 374.108 403.278 374.628 399.169C374.991 396.309 374.96 392.59 379.711 393.002C381.693 393.173 383.707 392.922 385.701 393.005C389.789 393.175 393.412 393.969 394.717 387.826C395.691 383.245 402.093 383.237 403.371 387.957C405.033 394.101 409.025 392.705 412.912 392.899C417.285 393.119 422.468 391.514 423.247 398.675C423.531 401.285 422.965 401.785 420.692 401.683C418.255 401.574 415.799 401.775 413.371 401.583C409.179 401.253 406.14 401.681 403.915 406.414C401.312 411.95 396.805 412.198 394.687 407.211C392.213 401.386 388.34 400.747 384.267 401.555Z" fill="#212936"/>
<path d="M488.976 395.999C487.684 399.224 485.357 399.772 482.893 400.247C478.152 401.16 473.22 401.13 468.733 403.367C467.147 404.159 465.077 404.28 463.748 402.831C461.695 400.594 459.969 401.452 458.021 402.832C455.837 404.38 452.447 404.964 451.408 402.999C449.643 399.66 447.387 395.474 448.728 391.847C449.764 389.047 454.145 389.647 456.461 390.872C459.42 392.438 461.531 392.774 463.929 390.366C464.327 389.967 465.239 389.752 465.797 389.896C473.507 391.878 481.195 393.936 488.976 395.999Z" fill="#212936"/>
<path d="M348.473 394.496C347.507 404.528 347.083 404.818 338.081 401.774C337.5 401.576 336.648 401.194 336.303 401.436C328.381 407.042 321.376 398.851 313.712 399.912C311.979 400.151 309.032 399.044 309.008 397.03C308.977 394.296 312.097 394.682 314.056 394.106C319.235 392.584 325.303 394.5 329.732 390.055C329.876 389.91 330.213 389.748 330.329 389.816C335.38 392.786 340.675 390.93 345.915 390.771C348.033 390.707 349.912 391.81 348.473 394.496Z" fill="#212936"/>
<path d="M418.975 315.812C424.721 317.18 426.839 322.03 428.234 326.723C435.639 351.644 442.582 376.688 448.863 401.932C454.625 425.083 461.213 448.047 468.183 470.864C471.245 480.891 470.775 491.052 471.874 501.15C472.677 508.53 472.983 515.966 472.223 523.82C466.137 510.979 458.558 498.616 454.245 485.203C441.838 446.62 428.201 408.46 415.599 369.951C410.733 355.078 406.239 340.08 401.651 325.116C401.546 324.775 402.345 324.158 402.722 323.668C405.382 321.627 408.714 320.811 411.434 318.878C413.847 317.611 416.151 316.066 418.975 315.812Z" fill="#212936"/>
<path d="M394.692 324.132C393.332 334.49 390.313 344.47 387.029 354.299C374.693 391.23 361.273 427.816 349.787 465.004C343.796 484.402 335.357 502.527 327.041 520.83C326.437 522.16 326.228 523.86 323.864 524.787C324.543 519.258 325.845 514.091 325.693 508.967C324.919 482.979 333.216 458.791 339.909 434.264C349.453 399.291 358.956 364.306 368.391 329.303C369.575 324.91 371.744 321.188 374.367 317.551C375.661 315.754 376.943 315.363 378.836 315.907C379.84 315.431 380.632 315.906 381.407 316.47C385.044 320.391 390.733 320.763 394.692 324.132Z" fill="#212936"/>
<path d="M416.308 303.269C413.376 309.297 408.699 313.197 401.431 312.567C398.678 312.329 395.834 313.263 393.166 311.938C378.347 305.418 375.252 289.973 386.635 279.339C398.818 272.513 408.834 274.321 415.874 284.783C419.908 290.781 419.272 297.175 416.308 303.269ZM413.275 268.075C410.094 266.129 409.282 264.331 409.47 260.861C409.819 254.451 409.672 248.007 409.514 241.583C409.336 234.402 405.25 230.657 398.132 230.838C392.072 230.993 388.336 235.01 388.271 241.578C388.21 247.785 387.968 254.007 388.343 260.191C388.587 264.193 387.406 266.301 383.83 268.469C366.132 279.195 363.948 301.411 378.835 315.906C379.256 316.171 379.678 316.435 380.099 316.699C384.466 320.13 389.079 322.953 394.934 322.706C397.542 322.722 400.148 322.739 402.756 322.755C406.314 323.103 409.102 320.873 412.27 319.911C414.423 318.413 417.814 318.934 418.975 315.811C433.927 300.258 431.562 279.273 413.275 268.075Z" fill="#212936"/>
<path d="M581.673 495.9C577.655 493.208 573.639 490.516 569.622 487.826C571.238 486.14 570.585 484.036 570.585 482.104C570.606 429.206 570.598 376.307 570.574 323.407C570.57 314.824 570.545 314.862 563.105 318.556C539.917 330.071 516.713 341.554 492.875 351.915C516.673 337.847 540.47 323.778 564.979 309.287C514.157 280.018 464.151 251.22 414.145 222.422C423.071 224.122 430.523 228.879 438.362 232.768C484.097 255.464 529.757 278.31 575.554 300.876C580.623 303.375 582.206 306.216 582.15 311.967C581.895 338.388 582.523 364.816 582.462 391.242C582.382 426.128 581.953 461.014 581.673 495.9Z" fill="#6D7280"/>
<path d="M393.521 311.919C406.99 312.76 414.369 308.664 417.069 298.651C418.805 292.211 417.746 286.39 412.725 281.586C406.878 275.992 400.001 274.899 392.42 276.787C390.532 277.258 388.685 277.898 386.818 278.46C387.401 276.148 390.842 276.083 390.856 273.324C390.401 271.786 391.378 271.523 392.561 271.276C406.548 268.36 415.217 274.262 420.668 284.803C426.056 295.226 421.573 306.794 410.801 314.036C409.904 314.642 408.793 315.014 408.285 316.103C404.64 317.36 404.524 317.379 404.054 314.376C403.749 312.412 402.472 313.538 401.693 313.483C398.897 313.288 395.888 314.354 393.521 311.919Z" fill="#6D7280"/>
<path d="M356.108 398.563C356.405 399.466 356.086 400.664 357.336 401.108C355.256 406.63 354.972 412.774 350.957 419.079C351.897 411.13 353.69 404.772 356.108 398.563Z" fill="#6D7280"/>
<path d="M356.108 398.563C362.338 376.302 368.57 354.041 374.801 331.779C375.676 332.018 376.549 332.257 377.424 332.494C371.945 355.689 364.098 378.255 357.336 401.109C355.026 401.177 355.381 399.959 356.108 398.563Z" fill="#A9ACB6"/>
<path d="M421.076 331.99C430.433 355.543 436.412 380.008 442.441 404.459C433.608 380.783 426.701 356.543 421.076 331.99Z" fill="#A8ACB6"/>
<path d="M408.286 316.103C409.73 311.876 414.204 310.543 416.707 307.149C422.744 298.963 423.175 289.595 417.023 281.427C410.202 272.371 400.383 269.331 390.855 273.324C378.778 277.425 375.902 287.163 375.868 299.648C371.139 284.084 380.832 273.227 390.983 270.489C405.21 266.653 418.55 273.255 422.804 286.011C426.942 298.415 420.787 311.169 408.286 316.103Z" fill="#A8ACB6"/>
<path d="M402.756 322.756C405.788 321.341 408.813 319.905 412.269 319.912C409.568 322.385 406.576 324.121 402.723 323.668C402.628 323.36 402.64 323.056 402.756 322.756Z" fill="#A8ACB6"/>
<path d="M380.099 316.7C385.045 318.701 389.989 320.704 394.934 322.705C394.854 323.181 394.773 323.657 394.691 324.132C388.922 323.432 383.581 321.891 380.099 316.7Z" fill="#A8ACB6"/>
<path d="M30.7353 716.332V711.297H38.6713V659.159H30.7353V654.124H62.7353V659.159H54.714V711.297H62.7353V716.332H30.7353ZM94.6307 711.297H100.604C111.185 711.297 116.22 707.201 116.22 698.327C116.22 689.452 111.1 685.1 100.604 685.1H94.6307V711.297ZM94.6307 680.065H100.092C109.564 680.065 114.172 676.737 114.172 669.484C114.172 662.145 109.735 659.159 100.092 659.159H94.6307V680.065ZM70.652 716.332V711.297H78.588V659.159H70.652V654.124H107.516C122.705 654.124 130.3 659.244 130.3 669.484C130.3 676.908 125.009 681.26 114.684 682.369C127.313 683.564 134.055 689.281 134.055 698.327C134.055 710.871 124.753 716.332 105.212 716.332H70.652ZM142.735 716.332V711.297H150.671V659.159H142.735V654.124H174.735V659.159H166.714V681.857L193.082 659.159H186.426V654.124H209.637V659.159H201.359L179.002 678.359L209.381 711.297H215.525V716.332H194.447L166.714 686.124V711.297H174.735V716.332H142.735ZM270.547 685.527H275.241C282.494 685.527 287.102 680.321 287.102 672.3C287.102 664.279 282.494 659.159 275.241 659.159H270.547V685.527ZM246.569 716.332V711.297H254.505V659.159H246.569V654.124H281.982C296.062 654.124 304.595 661.463 304.595 672.3C304.595 683.137 296.062 690.561 281.982 690.561H270.547V711.297H280.617V716.332H246.569ZM334.714 683.479H340.175C347.941 683.479 352.293 679.127 352.293 671.276C352.293 663.425 347.941 659.159 340.175 659.159H334.714V683.479ZM352.037 685.953C357.071 686.721 360.229 689.196 362.703 693.975L371.749 711.297H378.149V716.332H357.669L347.77 697.559C344.442 690.817 342.735 688.513 337.274 688.513H334.714V711.297H342.735V716.332H310.735V711.297H318.671V659.159H310.735V654.124H346.234C360.911 654.124 368.847 660.353 368.847 670.849C368.847 679.468 363.301 684.503 352.037 685.953ZM414.761 717.527C393.769 717.527 381.225 705.324 381.225 685.271C381.225 665.217 393.855 653.015 414.761 653.015C435.753 653.015 448.297 665.132 448.297 685.271C448.297 705.324 435.753 717.527 414.761 717.527ZM414.761 712.492C425.428 712.492 430.463 703.532 430.463 685.271C430.463 667.009 425.428 658.049 414.761 658.049C404.18 658.049 399.06 667.095 399.06 685.271C399.06 703.447 404.18 712.492 414.761 712.492ZM455.559 716.332V711.297H463.495V659.159H455.559V654.124H481.244L498.993 694.06L516.828 654.124H542.428V659.159H534.492V711.297H542.428V716.332H510.428V711.297H518.364V663.852L499.079 707.201H488.497L469.297 663.852V711.297H477.233V716.332H455.559ZM574.464 711.297H580.437C591.019 711.297 596.053 707.201 596.053 698.327C596.053 689.452 590.933 685.1 580.437 685.1H574.464V711.297ZM574.464 680.065H579.925C589.397 680.065 594.005 676.737 594.005 669.484C594.005 662.145 589.568 659.159 579.925 659.159H574.464V680.065ZM550.485 716.332V711.297H558.421V659.159H550.485V654.124H587.349C602.539 654.124 610.133 659.244 610.133 669.484C610.133 676.908 604.843 681.26 594.517 682.369C607.147 683.564 613.888 689.281 613.888 698.327C613.888 710.871 604.587 716.332 585.045 716.332H550.485ZM629.395 659.159H621.459V654.124H653.459V659.159H645.523V690.305C645.523 705.153 649.363 711.212 661.566 711.212C673.513 711.212 677.353 704.983 677.353 690.305V659.159H669.417V654.124H691.091V659.159H683.155V691.159C683.155 710.188 675.646 717.527 656.275 717.527C636.99 717.527 629.395 710.017 629.395 691.073V659.159ZM696.985 716.332V711.297H704.921V659.159H696.985V654.124H728.9C751.257 654.124 763.375 665.132 763.375 685.185C763.375 705.239 751.257 716.332 728.9 716.332H696.985ZM720.964 711.297H726.767C739.993 711.297 745.54 703.02 745.54 685.185C745.54 667.351 739.993 659.159 726.767 659.159H720.964V711.297Z" fill="#212936"/>
<path d="M160.553 749.193C163.001 750.237 164.549 752.577 164.549 755.493C164.549 757.581 163.829 759.309 162.353 760.713C160.913 762.117 159.077 762.801 156.809 762.801H145.145V737.097H155.693C158.105 737.097 160.049 737.709 161.453 738.969C162.893 740.193 163.613 741.813 163.613 743.829C163.613 746.169 162.605 747.933 160.553 749.193ZM149.033 739.473V748.185H155.621C157.097 748.185 159.689 747.429 159.689 743.793C159.689 742.209 159.257 741.093 158.393 740.445C157.565 739.797 156.629 739.473 155.585 739.473H149.033ZM156.161 760.425C157.673 760.425 160.625 759.381 160.625 755.493C160.625 753.765 160.121 752.505 159.149 751.749C158.177 750.957 157.205 750.561 156.161 750.561H149.033V760.425H156.161ZM181.33 743.541H185.11V762.801H181.33V760.389C179.854 762.261 177.73 763.197 174.886 763.197C170.71 763.197 168.334 760.857 168.334 756.717V743.541H172.114V756.609C172.114 759.237 173.626 760.893 176.218 760.893C178.27 760.893 179.962 759.885 181.33 757.833V743.541ZM191.864 740.697C190.604 740.697 189.668 739.797 189.668 738.609C189.668 737.421 190.604 736.521 191.864 736.521C193.052 736.521 194.024 737.421 194.024 738.609C194.024 739.797 193.052 740.697 191.864 740.697ZM189.956 762.801V743.541H193.736V762.801H189.956ZM203.537 763.161C200.945 763.161 198.713 761.217 198.713 757.293V735.441H202.493V757.041C202.493 759.417 203.249 760.605 204.797 760.605C205.301 760.605 205.697 760.533 205.985 760.353L206.741 762.045C205.949 762.801 204.869 763.161 203.537 763.161ZM222.302 735.441H226.082V762.801H222.302V760.137C220.502 762.153 218.522 763.161 216.362 763.161C213.95 763.161 211.862 762.261 210.098 760.461C208.37 758.625 207.506 756.213 207.506 753.189C207.506 750.165 208.37 747.753 210.098 745.917C211.826 744.081 213.914 743.181 216.362 743.181C218.558 743.181 220.538 744.153 222.302 746.061V735.441ZM217.226 760.893C218.954 760.893 220.646 759.777 222.302 757.581V748.797C220.754 746.565 219.062 745.449 217.19 745.449C215.534 745.449 214.13 746.205 213.014 747.717C211.898 749.229 211.358 751.029 211.358 753.153C211.358 755.277 211.898 757.113 213.014 758.625C214.13 760.137 215.534 760.893 217.226 760.893ZM232.857 740.697C231.597 740.697 230.661 739.797 230.661 738.609C230.661 737.421 231.597 736.521 232.857 736.521C234.045 736.521 235.017 737.421 235.017 738.609C235.017 739.797 234.045 740.697 232.857 740.697ZM230.949 762.801V743.541H234.729V762.801H230.949ZM249.785 743.145C253.961 743.145 256.337 745.485 256.337 749.625V762.801H252.557V749.733C252.557 747.105 251.045 745.449 248.453 745.449C246.401 745.449 244.709 746.457 243.341 748.509V762.801H239.561V743.541H243.341V745.953C244.817 744.081 246.941 743.145 249.785 743.145ZM274.72 743.541H278.5V763.989C278.5 768.885 275.368 771.837 269.932 771.837C266.08 771.837 262.768 770.361 260.86 767.625L262.372 766.437C264.136 768.489 266.332 769.533 268.996 769.533C272.452 769.533 274.72 767.661 274.72 764.385V760.137C272.92 762.153 270.94 763.161 268.78 763.161C266.368 763.161 264.28 762.261 262.516 760.461C260.788 758.625 259.924 756.213 259.924 753.189C259.924 750.165 260.788 747.753 262.516 745.917C264.244 744.081 266.332 743.181 268.78 743.181C270.976 743.181 272.956 744.153 274.72 746.061V743.541ZM269.644 760.893C271.372 760.893 273.064 759.777 274.72 757.581V748.797C273.172 746.565 271.48 745.449 269.608 745.449C267.952 745.449 266.548 746.205 265.432 747.717C264.316 749.229 263.776 751.029 263.776 753.153C263.776 755.277 264.316 757.113 265.432 758.625C266.548 760.137 267.952 760.893 269.644 760.893ZM290.958 745.809V743.541H293.406V738.393H297.186V743.541H301.974V745.809H297.186V757.365C297.186 759.993 297.762 760.857 299.454 760.857C300.138 760.857 300.966 760.569 301.938 759.957L302.838 761.541C301.794 762.621 300.318 763.161 298.482 763.161C295.134 763.161 293.406 761.073 293.406 757.293V745.809H290.958ZM315.701 743.145C319.877 743.145 322.253 745.485 322.253 749.625V762.801H318.473V749.733C318.473 747.105 316.961 745.449 314.369 745.449C312.389 745.449 310.697 746.421 309.329 748.401V762.801H305.549V735.441H309.329V745.881C310.769 744.045 312.893 743.145 315.701 743.145ZM336.785 760.893C339.053 760.893 340.565 760.101 342.329 758.121L343.841 759.129C342.437 761.433 339.773 763.161 336.029 763.161C333.113 763.161 330.701 762.225 328.793 760.353C326.885 758.481 325.913 756.141 325.913 753.333C325.913 750.561 326.813 748.149 328.613 746.169C330.449 744.189 332.717 743.181 335.453 743.181C338.045 743.181 340.205 744.081 341.897 745.917C343.589 747.753 344.453 750.237 344.453 753.405H329.729C329.801 755.421 330.413 757.185 331.565 758.661C332.753 760.137 334.481 760.893 336.785 760.893ZM335.525 745.449C334.229 745.449 333.041 745.989 331.997 747.069C330.953 748.149 330.269 749.517 329.945 751.173H340.745C340.709 749.697 340.133 748.365 339.089 747.213C338.045 746.025 336.857 745.449 335.525 745.449ZM363.962 735.081C366.446 735.081 368.138 736.017 369.038 737.853L367.85 739.041C367.058 737.925 366.086 737.349 364.934 737.349C362.99 737.349 362.018 738.609 362.018 741.165V743.541H366.77V745.809H362.018V762.801H358.238V745.809H355.718V743.541H358.238V740.877C358.238 737.385 360.542 735.081 363.962 735.081ZM382.845 743.541H386.625V762.801H382.845V760.389C381.369 762.261 379.245 763.197 376.401 763.197C372.225 763.197 369.849 760.857 369.849 756.717V743.541H373.629V756.609C373.629 759.237 375.141 760.893 377.733 760.893C379.785 760.893 381.477 759.885 382.845 757.833V743.541ZM389.888 745.809V743.541H392.336V738.393H396.116V743.541H400.904V745.809H396.116V757.365C396.116 759.993 396.692 760.857 398.384 760.857C399.068 760.857 399.896 760.569 400.868 759.957L401.768 761.541C400.724 762.621 399.248 763.161 397.412 763.161C394.064 763.161 392.336 761.073 392.336 757.293V745.809H389.888ZM417.439 743.541H421.219V762.801H417.439V760.389C415.963 762.261 413.839 763.197 410.995 763.197C406.819 763.197 404.443 760.857 404.443 756.717V743.541H408.223V756.609C408.223 759.237 409.735 760.893 412.327 760.893C414.379 760.893 416.071 759.885 417.439 757.833V743.541ZM426.03 762.801V743.541H429.81V745.953C431.43 744.117 433.374 743.181 435.714 743.181C437.406 743.181 438.738 743.685 439.71 744.693L438.234 746.889C437.406 746.025 436.326 745.593 434.922 745.593C432.87 745.593 430.926 746.997 429.81 748.473V762.801H426.03ZM450.726 760.893C452.994 760.893 454.506 760.101 456.27 758.121L457.782 759.129C456.378 761.433 453.714 763.161 449.97 763.161C447.054 763.161 444.642 762.225 442.734 760.353C440.826 758.481 439.854 756.141 439.854 753.333C439.854 750.561 440.754 748.149 442.554 746.169C444.39 744.189 446.658 743.181 449.394 743.181C451.986 743.181 454.146 744.081 455.838 745.917C457.53 747.753 458.394 750.237 458.394 753.405H443.67C443.742 755.421 444.354 757.185 445.506 758.661C446.694 760.137 448.422 760.893 450.726 760.893ZM449.466 745.449C448.17 745.449 446.982 745.989 445.938 747.069C444.894 748.149 444.21 749.517 443.886 751.173H454.686C454.65 749.697 454.074 748.365 453.03 747.213C451.986 746.025 450.798 745.449 449.466 745.449ZM477.507 763.161C473.439 763.161 470.703 761.361 469.515 758.481L471.099 757.401C472.395 759.741 474.411 760.893 477.111 760.893C479.883 760.893 481.467 759.633 481.467 757.617C481.467 755.709 480.063 755.097 476.571 754.233L475.815 754.053C472.035 753.081 470.127 751.209 470.127 748.509C470.127 745.089 472.827 743.181 476.859 743.181C480.747 743.181 483.195 745.053 484.347 747.393L482.763 748.473C481.431 746.349 479.955 745.449 477.543 745.449C475.167 745.449 473.979 746.277 473.979 747.933C473.943 749.301 474.951 749.985 475.995 750.453C476.319 750.597 477.111 750.777 477.363 750.885C477.651 750.921 478.551 751.137 478.695 751.173C482.871 752.037 485.319 753.585 485.319 757.041C485.319 759.021 484.563 760.569 483.087 761.613C481.611 762.657 479.775 763.161 477.507 763.161ZM490.728 740.697C489.468 740.697 488.532 739.797 488.532 738.609C488.532 737.421 489.468 736.521 490.728 736.521C491.916 736.521 492.888 737.421 492.888 738.609C492.888 739.797 491.916 740.697 490.728 740.697ZM488.82 762.801V743.541H492.6V762.801H488.82ZM507.656 743.145C511.832 743.145 514.208 745.485 514.208 749.625V762.801H510.428V749.733C510.428 747.105 508.916 745.449 506.324 745.449C504.272 745.449 502.58 746.457 501.212 748.509V762.801H497.432V743.541H501.212V745.953C502.688 744.081 504.812 743.145 507.656 743.145ZM533.887 748.221C532.159 746.313 530.611 745.449 528.451 745.449C526.363 745.449 524.707 746.205 523.483 747.681C522.259 749.157 521.647 750.993 521.647 753.153C521.647 755.277 522.223 757.077 523.411 758.625C524.599 760.137 526.291 760.893 528.487 760.893C530.647 760.893 532.087 760.101 533.923 758.121L535.399 759.129C533.707 761.829 531.151 763.161 527.731 763.161C524.887 763.161 522.511 762.225 520.639 760.317C518.767 758.409 517.831 756.069 517.831 753.261C517.831 750.453 518.731 748.077 520.567 746.133C522.403 744.153 524.815 743.181 527.731 743.181C531.115 743.181 533.671 744.513 535.399 747.213L533.887 748.221ZM548.566 760.893C550.834 760.893 552.346 760.101 554.11 758.121L555.622 759.129C554.218 761.433 551.554 763.161 547.81 763.161C544.894 763.161 542.482 762.225 540.574 760.353C538.666 758.481 537.694 756.141 537.694 753.333C537.694 750.561 538.594 748.149 540.394 746.169C542.23 744.189 544.498 743.181 547.234 743.181C549.826 743.181 551.986 744.081 553.678 745.917C555.37 747.753 556.234 750.237 556.234 753.405H541.51C541.582 755.421 542.194 757.185 543.346 758.661C544.534 760.137 546.262 760.893 548.566 760.893ZM547.306 745.449C546.01 745.449 544.822 745.989 543.778 747.069C542.734 748.149 542.05 749.517 541.726 751.173H552.526C552.49 749.697 551.914 748.365 550.87 747.213C549.826 746.025 548.638 745.449 547.306 745.449ZM576.103 737.097H579.955V760.425H584.887V762.801H570.703V760.425H576.103V740.229L570.955 745.053L569.371 743.361L576.103 737.097ZM598.202 736.737C602.054 736.737 607.67 738.789 607.67 748.437C607.67 753.009 606.554 756.609 604.286 759.237C602.018 761.865 599.354 763.161 596.294 763.161C593.954 763.161 591.506 762.261 590.318 760.641L591.758 759.345C592.73 760.461 594.098 761.001 595.826 761.001C600.182 761.001 603.17 757.185 603.638 750.165C602.918 750.921 601.91 751.605 600.614 752.217C599.354 752.793 598.058 753.081 596.762 753.081C595.07 753.081 593.306 752.505 591.722 751.353C590.138 750.201 589.058 748.077 589.058 745.485C589.058 742.893 589.958 740.805 591.722 739.185C593.522 737.565 595.682 736.737 598.202 736.737ZM597.554 750.633C600.038 750.633 602.378 749.301 603.71 747.825C603.602 742.065 601.838 739.185 598.382 739.185C595.358 739.185 593.018 741.309 593.018 745.377C593.018 748.725 594.566 750.633 597.554 750.633ZM619.436 736.737C623.288 736.737 628.904 738.789 628.904 748.437C628.904 753.009 627.788 756.609 625.52 759.237C623.252 761.865 620.588 763.161 617.528 763.161C615.188 763.161 612.74 762.261 611.552 760.641L612.992 759.345C613.964 760.461 615.332 761.001 617.06 761.001C621.416 761.001 624.404 757.185 624.872 750.165C624.152 750.921 623.144 751.605 621.848 752.217C620.588 752.793 619.292 753.081 617.996 753.081C616.304 753.081 614.54 752.505 612.956 751.353C611.372 750.201 610.292 748.077 610.292 745.485C610.292 742.893 611.192 740.805 612.956 739.185C614.756 737.565 616.916 736.737 619.436 736.737ZM618.788 750.633C621.272 750.633 623.612 749.301 624.944 747.825C624.836 742.065 623.072 739.185 619.616 739.185C616.592 739.185 614.252 741.309 614.252 745.377C614.252 748.725 615.8 750.633 618.788 750.633ZM650.57 749.949C650.714 757.257 647.15 763.161 640.85 763.161C637.79 763.161 635.378 761.901 633.686 759.417C631.994 756.933 631.13 753.765 631.13 749.949C631.13 746.133 631.994 742.965 633.686 740.481C635.378 737.997 637.79 736.737 640.85 736.737C643.91 736.737 646.322 737.997 648.014 740.481C649.706 742.965 650.57 746.133 650.57 749.949ZM635.09 749.949C635.09 757.113 636.998 760.713 640.85 760.713C644.702 760.713 646.61 757.113 646.61 749.949C646.61 742.785 644.702 739.185 640.85 739.185C636.998 739.185 635.09 742.785 635.09 749.949Z" fill="#A8ACB6"/>
</svg>
