<svg width="741" height="559" viewBox="0 0 741 559" fill="none" xmlns="http://www.w3.org/2000/svg">
<path d="M201.142 266.751V94.5432C226.677 107.086 251.551 119.305 276.426 131.523C276.618 131.142 276.81 130.761 277.002 130.379C253.773 116.511 230.542 102.645 206.838 88.4939C254.878 60.5379 302.11 33.0526 349.341 5.56728C352.109 4.03928 354.307 2.71126 357.897 0.000591216C353.699 1.51259 351.053 2.67796 348.077 4.24062C297.674 29.2353 247.306 54.3033 196.821 79.1286C191.01 81.9859 188.479 85.2593 188.511 92.1606C188.787 152.353 188.67 212.547 188.471 272.742C188.458 276.647 190.561 277.447 193.241 278.698C251.441 305.866 309.633 333.053 367.758 360.382C371.383 362.086 374.357 361.994 377.787 360.335C390.545 354.167 403.33 348.054 416.171 342.062C461.31 321.001 506.482 300.007 551.619 278.941C553.226 278.191 555.882 278.018 554.947 274.995C550.942 271.929 547.942 270.095 542.897 266.919C526.447 258.953 509.999 250.985 493.551 243.017C486.942 240.095 480.959 236.869 473.874 234.607C479.931 237.914 485.99 241.221 492.047 244.527C506.685 252.669 521.323 260.81 536.974 269.514C519.881 277.527 504.094 284.958 488.281 292.334C450.929 309.755 413.558 327.137 376.221 344.59C374.104 345.579 372.433 345.99 370.053 344.871C341.381 331.405 312.626 318.114 283.909 304.743C258.815 293.058 233.743 281.329 207.859 269.243C222.201 261.102 236.121 253.926 249.719 246.206C256.498 242.317 263.414 238.625 269.83 234.054" fill="#212936"/>
<path d="M357.542 180.65C355.137 180.65 353.737 180.912 352.49 180.586C350.817 180.149 347.383 182.373 347.903 178.264C348.266 175.404 348.235 171.685 352.986 172.097C354.969 172.268 356.982 172.017 358.977 172.1C363.065 172.27 366.687 173.064 367.993 166.921C368.966 162.34 375.369 162.332 376.646 167.052C378.309 173.196 382.301 171.8 386.187 171.994C390.561 172.214 395.743 170.609 396.522 177.77C396.806 180.38 396.241 180.88 393.967 180.778C391.53 180.669 389.074 180.87 386.646 180.678C382.454 180.348 379.415 180.776 377.19 185.509C374.587 191.045 370.081 191.293 367.962 186.306C365.489 180.481 361.615 179.842 357.542 180.65Z" fill="#212936"/>
<path d="M462.251 175.094C460.959 178.319 458.633 178.867 456.169 179.342C451.427 180.255 446.495 180.224 442.009 182.462C440.422 183.254 438.353 183.375 437.023 181.926C434.97 179.688 433.245 180.547 431.297 181.927C429.113 183.475 425.722 184.059 424.683 182.094C422.918 178.755 420.662 174.568 422.003 170.942C423.039 168.142 427.421 168.742 429.737 169.967C432.695 171.532 434.806 171.868 437.205 169.46C437.602 169.062 438.514 168.847 439.073 168.991C446.782 170.972 454.47 173.031 462.251 175.094Z" fill="#212936"/>
<path d="M321.749 173.591C320.782 183.623 320.358 183.912 311.357 180.868C310.775 180.671 309.923 180.288 309.578 180.531C301.657 186.136 294.651 177.946 286.987 179.007C285.254 179.246 282.307 178.139 282.283 176.124C282.253 173.391 285.373 173.776 287.331 173.2C292.51 171.679 298.578 173.595 303.007 169.15C303.151 169.004 303.489 168.843 303.605 168.911C308.655 171.88 313.95 170.024 319.19 169.866C321.309 169.802 323.187 170.904 321.749 173.591Z" fill="#212936"/>
<path d="M392.251 94.907C397.996 96.275 400.115 101.124 401.509 105.818C408.915 130.739 415.857 155.783 422.139 181.027C427.9 204.178 434.488 227.142 441.459 249.959C444.52 259.986 444.051 270.147 445.149 280.244C445.952 287.624 446.259 295.06 445.499 302.915C439.412 290.074 431.833 277.711 427.52 264.298C415.113 225.715 401.476 187.555 388.875 149.046C384.008 134.172 379.515 119.175 374.927 104.211C374.821 103.87 375.62 103.252 375.997 102.763C378.657 100.722 381.989 99.9057 384.709 97.9724C387.123 96.7057 389.427 95.1604 392.251 94.907Z" fill="#212936"/>
<path d="M367.967 103.227C366.607 113.585 363.588 123.565 360.304 133.394C347.968 170.325 334.548 206.911 323.062 244.099C317.071 263.497 308.632 281.622 300.316 299.924C299.712 301.255 299.503 302.955 297.139 303.882C297.818 298.353 299.12 293.186 298.968 288.062C298.194 262.074 306.491 237.886 313.184 213.359C322.728 178.386 332.231 143.401 341.666 108.398C342.85 104.005 345.019 100.283 347.642 96.6458C348.936 94.8485 350.218 94.4578 352.111 95.0018C353.115 94.5258 353.907 95.0005 354.682 95.5645C358.319 99.4859 364.008 99.8579 367.967 103.227Z" fill="#212936"/>
<path d="M389.584 82.3635C386.652 88.3915 381.974 92.2915 374.706 91.6622C371.953 91.4235 369.109 92.3582 366.441 91.0329C351.622 84.5129 348.528 69.0675 359.91 58.4342C372.093 51.6076 382.109 53.4156 389.149 63.8782C393.184 69.8755 392.548 76.2702 389.584 82.3635ZM386.55 47.1702C383.369 45.2235 382.557 43.4262 382.745 39.9555C383.094 33.5462 382.948 27.1022 382.789 20.6782C382.612 13.4969 378.525 9.75155 371.408 9.93289C365.348 10.0876 361.612 14.1049 361.546 20.6729C361.485 26.8795 361.244 33.1022 361.618 39.2862C361.862 43.2876 360.681 45.3956 357.105 47.5636C339.408 58.2902 337.224 80.5062 352.11 95.0009C352.532 95.2662 352.953 95.5302 353.374 95.7942C357.741 99.2249 362.354 102.048 368.209 101.801C370.817 101.817 373.424 101.834 376.032 101.85C379.589 102.198 382.377 99.9675 385.545 99.0062C387.698 97.5075 391.089 98.0289 392.25 94.9062C407.202 79.3529 404.837 58.3675 386.55 47.1702Z" fill="#212936"/>
<path d="M554.948 274.995C550.931 272.303 546.915 269.611 542.897 266.92C544.513 265.235 543.86 263.131 543.86 261.199C543.881 208.3 543.873 155.402 543.849 102.502C543.845 93.9191 543.82 93.9565 536.38 97.6511C513.192 109.166 489.988 120.648 466.151 131.01C489.948 116.942 513.745 102.872 538.255 88.3818C487.432 59.1125 437.427 30.3151 387.42 1.51648C396.347 3.21648 403.799 7.9738 411.637 11.8631C457.372 34.5591 503.032 57.4045 548.829 79.9711C553.899 82.4698 555.481 85.3111 555.425 91.0618C555.171 117.483 555.799 143.911 555.737 170.336C555.657 205.223 555.228 240.108 554.948 274.995Z" fill="#6D7280"/>
<path d="M366.796 91.0138C380.266 91.8551 387.644 87.7591 390.344 77.7458C392.08 71.3058 391.022 65.4844 386 60.6804C380.154 55.0871 373.276 53.9938 365.695 55.8818C363.807 56.3524 361.96 56.9924 360.094 57.5551C360.676 55.2431 364.118 55.1778 364.131 52.4191C363.676 50.8804 364.654 50.6178 365.836 50.3711C379.823 47.4551 388.492 53.3564 393.943 63.8978C399.331 74.3204 394.848 85.8884 384.076 93.1311C383.179 93.7364 382.068 94.1084 381.56 95.1978C377.915 96.4551 377.799 96.4738 377.33 93.4711C377.024 91.5071 375.747 92.6324 374.968 92.5778C372.172 92.3831 369.163 93.4484 366.796 91.0138Z" fill="#6D7280"/>
<path d="M329.383 177.658C329.68 178.56 329.362 179.759 330.611 180.203C328.531 185.724 328.247 191.868 324.232 198.174C325.172 190.224 326.966 183.867 329.383 177.658Z" fill="#6D7280"/>
<path d="M329.383 177.658C335.614 155.397 341.846 133.135 348.076 110.874C348.951 111.113 349.824 111.351 350.699 111.589C345.22 134.783 337.374 157.35 330.611 180.203C328.302 180.271 328.656 179.054 329.383 177.658Z" fill="#A9ACB6"/>
<path d="M394.351 111.084C403.708 134.638 409.687 159.103 415.716 183.554C406.883 159.878 399.976 135.638 394.351 111.084Z" fill="#A8ACB6"/>
<path d="M381.561 95.1973C383.005 90.9706 387.48 89.6373 389.982 86.2439C396.02 78.0573 396.45 68.6893 390.298 60.5213C383.477 51.4653 373.658 48.4253 364.13 52.4186C352.053 56.5199 349.177 66.2573 349.144 78.7426C344.414 63.1786 354.108 52.3213 364.258 49.5839C378.485 45.7479 391.825 52.3493 396.08 65.1053C400.217 77.5093 394.062 90.2639 381.561 95.1973Z" fill="#A8ACB6"/>
<path d="M376.031 101.851C379.063 100.436 382.088 99.0002 385.544 99.0069C382.843 101.48 379.851 103.216 375.998 102.763C375.903 102.455 375.915 102.151 376.031 101.851Z" fill="#A8ACB6"/>
<path d="M353.375 95.7946C358.32 97.7959 363.264 99.7986 368.209 101.8C368.129 102.276 368.048 102.752 367.967 103.227C362.197 102.527 356.856 100.985 353.375 95.7946Z" fill="#A8ACB6"/>
<path d="M4.01067 495.427V490.392H11.9467V438.253H4.01067V433.219H36.0107V438.253H27.9893V490.392H36.0107V495.427H4.01067ZM67.906 490.392H73.8793C84.4607 490.392 89.4953 486.296 89.4953 477.421C89.4953 468.547 84.3753 464.195 73.8793 464.195H67.906V490.392ZM67.906 459.16H73.3673C82.8393 459.16 87.4473 455.832 87.4473 448.579C87.4473 441.24 83.01 438.253 73.3673 438.253H67.906V459.16ZM43.9273 495.427V490.392H51.8633V438.253H43.9273V433.219H80.7913C95.9807 433.219 103.575 438.339 103.575 448.579C103.575 456.003 98.2847 460.355 87.9593 461.464C100.589 462.659 107.33 468.376 107.33 477.421C107.33 489.965 98.0287 495.427 78.4873 495.427H43.9273ZM116.011 495.427V490.392H123.947V438.253H116.011V433.219H148.011V438.253H139.989V460.952L166.357 438.253H159.701V433.219H182.912V438.253H174.635L152.277 457.453L182.656 490.392H188.8V495.427H167.723L139.989 465.219V490.392H148.011V495.427H116.011ZM243.823 464.621H248.516C255.769 464.621 260.377 459.416 260.377 451.395C260.377 443.373 255.769 438.253 248.516 438.253H243.823V464.621ZM219.844 495.427V490.392H227.78V438.253H219.844V433.219H255.257C269.337 433.219 277.871 440.557 277.871 451.395C277.871 462.232 269.337 469.656 255.257 469.656H243.823V490.392H253.892V495.427H219.844ZM307.989 462.573H313.451C321.216 462.573 325.568 458.221 325.568 450.371C325.568 442.52 321.216 438.253 313.451 438.253H307.989V462.573ZM325.312 465.048C330.347 465.816 333.504 468.291 335.979 473.069L345.024 490.392H351.424V495.427H330.944L321.045 476.653C317.717 469.912 316.011 467.608 310.549 467.608H307.989V490.392H316.011V495.427H284.011V490.392H291.947V438.253H284.011V433.219H319.509C334.187 433.219 342.123 439.448 342.123 449.944C342.123 458.563 336.576 463.597 325.312 465.048ZM388.037 496.621C367.045 496.621 354.501 484.419 354.501 464.365C354.501 444.312 367.13 432.109 388.037 432.109C409.029 432.109 421.573 444.227 421.573 464.365C421.573 484.419 409.029 496.621 388.037 496.621ZM388.037 491.587C398.703 491.587 403.738 482.627 403.738 464.365C403.738 446.104 398.703 437.144 388.037 437.144C377.455 437.144 372.335 446.189 372.335 464.365C372.335 482.541 377.455 491.587 388.037 491.587ZM428.834 495.427V490.392H436.77V438.253H428.834V433.219H454.519L472.269 473.155L490.103 433.219H515.703V438.253H507.767V490.392H515.703V495.427H483.703V490.392H491.639V442.947L472.354 486.296H461.773L442.573 442.947V490.392H450.509V495.427H428.834ZM547.739 490.392H553.713C564.294 490.392 569.329 486.296 569.329 477.421C569.329 468.547 564.209 464.195 553.713 464.195H547.739V490.392ZM547.739 459.16H553.201C562.673 459.16 567.281 455.832 567.281 448.579C567.281 441.24 562.843 438.253 553.201 438.253H547.739V459.16ZM523.761 495.427V490.392H531.697V438.253H523.761V433.219H560.625C575.814 433.219 583.409 438.339 583.409 448.579C583.409 456.003 578.118 460.355 567.793 461.464C580.422 462.659 587.163 468.376 587.163 477.421C587.163 489.965 577.862 495.427 558.321 495.427H523.761ZM602.671 438.253H594.735V433.219H626.735V438.253H618.799V469.4C618.799 484.248 622.639 490.307 634.841 490.307C646.788 490.307 650.628 484.077 650.628 469.4V438.253H642.692V433.219H664.367V438.253H656.431V470.253C656.431 489.283 648.921 496.621 629.551 496.621C610.265 496.621 602.671 489.112 602.671 470.168V438.253ZM670.261 495.427V490.392H678.197V438.253H670.261V433.219H702.175C724.533 433.219 736.65 444.227 736.65 464.28C736.65 484.333 724.533 495.427 702.175 495.427H670.261ZM694.239 490.392H700.042C713.269 490.392 718.815 482.115 718.815 464.28C718.815 446.445 713.269 438.253 700.042 438.253H694.239V490.392Z" fill="#212936"/>
<path d="M133.828 528.288C136.276 529.332 137.824 531.672 137.824 534.588C137.824 536.676 137.104 538.404 135.628 539.808C134.188 541.212 132.352 541.896 130.084 541.896H118.42V516.192H128.968C131.38 516.192 133.324 516.804 134.728 518.064C136.168 519.288 136.888 520.908 136.888 522.924C136.888 525.264 135.88 527.028 133.828 528.288ZM122.308 518.568V527.28H128.896C130.372 527.28 132.964 526.524 132.964 522.888C132.964 521.304 132.532 520.188 131.668 519.54C130.84 518.892 129.904 518.568 128.86 518.568H122.308ZM129.436 539.52C130.948 539.52 133.9 538.476 133.9 534.588C133.9 532.86 133.396 531.6 132.424 530.844C131.452 530.052 130.48 529.656 129.436 529.656H122.308V539.52H129.436ZM154.605 522.636H158.385V541.896H154.605V539.484C153.129 541.356 151.005 542.292 148.161 542.292C143.985 542.292 141.609 539.952 141.609 535.812V522.636H145.389V535.704C145.389 538.332 146.901 539.988 149.493 539.988C151.545 539.988 153.237 538.98 154.605 536.928V522.636ZM165.14 519.792C163.88 519.792 162.944 518.892 162.944 517.704C162.944 516.516 163.88 515.616 165.14 515.616C166.328 515.616 167.3 516.516 167.3 517.704C167.3 518.892 166.328 519.792 165.14 519.792ZM163.232 541.896V522.636H167.012V541.896H163.232ZM176.812 542.256C174.22 542.256 171.988 540.312 171.988 536.388V514.536H175.768V536.136C175.768 538.512 176.524 539.7 178.072 539.7C178.576 539.7 178.972 539.628 179.26 539.448L180.016 541.14C179.224 541.896 178.144 542.256 176.812 542.256ZM195.577 514.536H199.357V541.896H195.577V539.232C193.777 541.248 191.797 542.256 189.637 542.256C187.225 542.256 185.137 541.356 183.373 539.556C181.645 537.72 180.781 535.308 180.781 532.284C180.781 529.26 181.645 526.848 183.373 525.012C185.101 523.176 187.189 522.276 189.637 522.276C191.833 522.276 193.813 523.248 195.577 525.156V514.536ZM190.501 539.988C192.229 539.988 193.921 538.872 195.577 536.676V527.892C194.029 525.66 192.337 524.544 190.465 524.544C188.809 524.544 187.405 525.3 186.289 526.812C185.173 528.324 184.633 530.124 184.633 532.248C184.633 534.372 185.173 536.208 186.289 537.72C187.405 539.232 188.809 539.988 190.501 539.988ZM206.132 519.792C204.872 519.792 203.936 518.892 203.936 517.704C203.936 516.516 204.872 515.616 206.132 515.616C207.32 515.616 208.292 516.516 208.292 517.704C208.292 518.892 207.32 519.792 206.132 519.792ZM204.224 541.896V522.636H208.004V541.896H204.224ZM223.06 522.24C227.236 522.24 229.612 524.58 229.612 528.72V541.896H225.832V528.828C225.832 526.2 224.32 524.544 221.728 524.544C219.676 524.544 217.984 525.552 216.616 527.604V541.896H212.836V522.636H216.616V525.048C218.092 523.176 220.216 522.24 223.06 522.24ZM247.995 522.636H251.775V543.084C251.775 547.98 248.643 550.932 243.207 550.932C239.355 550.932 236.043 549.456 234.135 546.72L235.647 545.532C237.411 547.584 239.607 548.628 242.271 548.628C245.727 548.628 247.995 546.756 247.995 543.48V539.232C246.195 541.248 244.215 542.256 242.055 542.256C239.643 542.256 237.555 541.356 235.791 539.556C234.063 537.72 233.199 535.308 233.199 532.284C233.199 529.26 234.063 526.848 235.791 525.012C237.519 523.176 239.607 522.276 242.055 522.276C244.251 522.276 246.231 523.248 247.995 525.156V522.636ZM242.919 539.988C244.647 539.988 246.339 538.872 247.995 536.676V527.892C246.447 525.66 244.755 524.544 242.883 524.544C241.227 524.544 239.823 525.3 238.707 526.812C237.591 528.324 237.051 530.124 237.051 532.248C237.051 534.372 237.591 536.208 238.707 537.72C239.823 539.232 241.227 539.988 242.919 539.988ZM264.234 524.904V522.636H266.682V517.488H270.462V522.636H275.25V524.904H270.462V536.46C270.462 539.088 271.038 539.952 272.73 539.952C273.414 539.952 274.242 539.664 275.214 539.052L276.114 540.636C275.07 541.716 273.594 542.256 271.758 542.256C268.41 542.256 266.682 540.168 266.682 536.388V524.904H264.234ZM288.977 522.24C293.153 522.24 295.529 524.58 295.529 528.72V541.896H291.749V528.828C291.749 526.2 290.237 524.544 287.645 524.544C285.665 524.544 283.973 525.516 282.605 527.496V541.896H278.825V514.536H282.605V524.976C284.045 523.14 286.169 522.24 288.977 522.24ZM310.06 539.988C312.328 539.988 313.84 539.196 315.604 537.216L317.116 538.224C315.712 540.528 313.048 542.256 309.304 542.256C306.388 542.256 303.976 541.32 302.068 539.448C300.16 537.576 299.188 535.236 299.188 532.428C299.188 529.656 300.088 527.244 301.888 525.264C303.724 523.284 305.992 522.276 308.728 522.276C311.32 522.276 313.48 523.176 315.172 525.012C316.864 526.848 317.728 529.332 317.728 532.5H303.004C303.076 534.516 303.688 536.28 304.84 537.756C306.028 539.232 307.756 539.988 310.06 539.988ZM308.8 524.544C307.504 524.544 306.316 525.084 305.272 526.164C304.228 527.244 303.544 528.612 303.22 530.268H314.02C313.984 528.792 313.408 527.46 312.364 526.308C311.32 525.12 310.132 524.544 308.8 524.544ZM337.237 514.176C339.721 514.176 341.413 515.112 342.313 516.948L341.125 518.136C340.333 517.02 339.361 516.444 338.209 516.444C336.265 516.444 335.293 517.704 335.293 520.26V522.636H340.045V524.904H335.293V541.896H331.513V524.904H328.993V522.636H331.513V519.972C331.513 516.48 333.817 514.176 337.237 514.176ZM356.121 522.636H359.901V541.896H356.121V539.484C354.645 541.356 352.521 542.292 349.677 542.292C345.501 542.292 343.125 539.952 343.125 535.812V522.636H346.905V535.704C346.905 538.332 348.417 539.988 351.009 539.988C353.061 539.988 354.753 538.98 356.121 536.928V522.636ZM363.163 524.904V522.636H365.611V517.488H369.391V522.636H374.179V524.904H369.391V536.46C369.391 539.088 369.967 539.952 371.659 539.952C372.343 539.952 373.171 539.664 374.143 539.052L375.043 540.636C373.999 541.716 372.523 542.256 370.687 542.256C367.339 542.256 365.611 540.168 365.611 536.388V524.904H363.163ZM390.714 522.636H394.494V541.896H390.714V539.484C389.238 541.356 387.114 542.292 384.27 542.292C380.094 542.292 377.718 539.952 377.718 535.812V522.636H381.498V535.704C381.498 538.332 383.01 539.988 385.602 539.988C387.654 539.988 389.346 538.98 390.714 536.928V522.636ZM399.305 541.896V522.636H403.085V525.048C404.705 523.212 406.649 522.276 408.989 522.276C410.681 522.276 412.013 522.78 412.985 523.788L411.509 525.984C410.681 525.12 409.601 524.688 408.197 524.688C406.145 524.688 404.201 526.092 403.085 527.568V541.896H399.305ZM424.002 539.988C426.27 539.988 427.782 539.196 429.546 537.216L431.058 538.224C429.654 540.528 426.99 542.256 423.246 542.256C420.33 542.256 417.918 541.32 416.01 539.448C414.102 537.576 413.13 535.236 413.13 532.428C413.13 529.656 414.03 527.244 415.83 525.264C417.666 523.284 419.934 522.276 422.67 522.276C425.262 522.276 427.422 523.176 429.114 525.012C430.806 526.848 431.67 529.332 431.67 532.5H416.946C417.018 534.516 417.63 536.28 418.782 537.756C419.97 539.232 421.698 539.988 424.002 539.988ZM422.742 524.544C421.446 524.544 420.258 525.084 419.214 526.164C418.17 527.244 417.486 528.612 417.162 530.268H427.962C427.926 528.792 427.35 527.46 426.306 526.308C425.262 525.12 424.074 524.544 422.742 524.544ZM450.783 542.256C446.715 542.256 443.979 540.456 442.791 537.576L444.375 536.496C445.671 538.836 447.687 539.988 450.387 539.988C453.159 539.988 454.743 538.728 454.743 536.712C454.743 534.804 453.339 534.192 449.847 533.328L449.091 533.148C445.311 532.176 443.403 530.304 443.403 527.604C443.403 524.184 446.103 522.276 450.135 522.276C454.023 522.276 456.471 524.148 457.623 526.488L456.039 527.568C454.707 525.444 453.231 524.544 450.819 524.544C448.443 524.544 447.255 525.372 447.255 527.028C447.219 528.396 448.227 529.08 449.271 529.548C449.595 529.692 450.387 529.872 450.639 529.98C450.927 530.016 451.827 530.232 451.971 530.268C456.147 531.132 458.595 532.68 458.595 536.136C458.595 538.116 457.839 539.664 456.363 540.708C454.887 541.752 453.051 542.256 450.783 542.256ZM464.003 519.792C462.743 519.792 461.807 518.892 461.807 517.704C461.807 516.516 462.743 515.616 464.003 515.616C465.191 515.616 466.163 516.516 466.163 517.704C466.163 518.892 465.191 519.792 464.003 519.792ZM462.095 541.896V522.636H465.875V541.896H462.095ZM480.931 522.24C485.107 522.24 487.483 524.58 487.483 528.72V541.896H483.703V528.828C483.703 526.2 482.191 524.544 479.599 524.544C477.547 524.544 475.855 525.552 474.487 527.604V541.896H470.707V522.636H474.487V525.048C475.963 523.176 478.087 522.24 480.931 522.24ZM507.162 527.316C505.434 525.408 503.886 524.544 501.726 524.544C499.638 524.544 497.982 525.3 496.758 526.776C495.534 528.252 494.922 530.088 494.922 532.248C494.922 534.372 495.498 536.172 496.686 537.72C497.874 539.232 499.566 539.988 501.762 539.988C503.922 539.988 505.362 539.196 507.198 537.216L508.674 538.224C506.982 540.924 504.426 542.256 501.006 542.256C498.162 542.256 495.786 541.32 493.914 539.412C492.042 537.504 491.106 535.164 491.106 532.356C491.106 529.548 492.006 527.172 493.842 525.228C495.678 523.248 498.09 522.276 501.006 522.276C504.39 522.276 506.946 523.608 508.674 526.308L507.162 527.316ZM521.841 539.988C524.109 539.988 525.621 539.196 527.385 537.216L528.897 538.224C527.493 540.528 524.829 542.256 521.085 542.256C518.169 542.256 515.757 541.32 513.849 539.448C511.941 537.576 510.969 535.236 510.969 532.428C510.969 529.656 511.869 527.244 513.669 525.264C515.505 523.284 517.773 522.276 520.509 522.276C523.101 522.276 525.261 523.176 526.953 525.012C528.645 526.848 529.509 529.332 529.509 532.5H514.785C514.857 534.516 515.469 536.28 516.621 537.756C517.809 539.232 519.537 539.988 521.841 539.988ZM520.581 524.544C519.285 524.544 518.097 525.084 517.053 526.164C516.009 527.244 515.325 528.612 515.001 530.268H525.801C525.765 528.792 525.189 527.46 524.145 526.308C523.101 525.12 521.913 524.544 520.581 524.544ZM549.378 516.192H553.23V539.52H558.162V541.896H543.978V539.52H549.378V519.324L544.23 524.148L542.646 522.456L549.378 516.192ZM571.477 515.832C575.329 515.832 580.945 517.884 580.945 527.532C580.945 532.104 579.829 535.704 577.561 538.332C575.293 540.96 572.629 542.256 569.569 542.256C567.229 542.256 564.781 541.356 563.593 539.736L565.033 538.44C566.005 539.556 567.373 540.096 569.101 540.096C573.457 540.096 576.445 536.28 576.913 529.26C576.193 530.016 575.185 530.7 573.889 531.312C572.629 531.888 571.333 532.176 570.037 532.176C568.345 532.176 566.581 531.6 564.997 530.448C563.413 529.296 562.333 527.172 562.333 524.58C562.333 521.988 563.233 519.9 564.997 518.28C566.797 516.66 568.957 515.832 571.477 515.832ZM570.829 529.728C573.313 529.728 575.653 528.396 576.985 526.92C576.877 521.16 575.113 518.28 571.657 518.28C568.633 518.28 566.293 520.404 566.293 524.472C566.293 527.82 567.841 529.728 570.829 529.728ZM592.711 515.832C596.563 515.832 602.179 517.884 602.179 527.532C602.179 532.104 601.063 535.704 598.795 538.332C596.527 540.96 593.863 542.256 590.803 542.256C588.463 542.256 586.015 541.356 584.827 539.736L586.267 538.44C587.239 539.556 588.607 540.096 590.335 540.096C594.691 540.096 597.679 536.28 598.147 529.26C597.427 530.016 596.419 530.7 595.123 531.312C593.863 531.888 592.567 532.176 591.271 532.176C589.579 532.176 587.815 531.6 586.231 530.448C584.647 529.296 583.567 527.172 583.567 524.58C583.567 521.988 584.467 519.9 586.231 518.28C588.031 516.66 590.191 515.832 592.711 515.832ZM592.063 529.728C594.547 529.728 596.887 528.396 598.219 526.92C598.111 521.16 596.347 518.28 592.891 518.28C589.867 518.28 587.527 520.404 587.527 524.472C587.527 527.82 589.075 529.728 592.063 529.728ZM623.845 529.044C623.989 536.352 620.425 542.256 614.125 542.256C611.065 542.256 608.653 540.996 606.961 538.512C605.269 536.028 604.405 532.86 604.405 529.044C604.405 525.228 605.269 522.06 606.961 519.576C608.653 517.092 611.065 515.832 614.125 515.832C617.185 515.832 619.597 517.092 621.289 519.576C622.981 522.06 623.845 525.228 623.845 529.044ZM608.365 529.044C608.365 536.208 610.273 539.808 614.125 539.808C617.977 539.808 619.885 536.208 619.885 529.044C619.885 521.88 617.977 518.28 614.125 518.28C610.273 518.28 608.365 521.88 608.365 529.044Z" fill="#A8ACB6"/>
</svg>
